# xmcd
#
# Track frame offsets:
#	150
#	20128
#	45145
#	61146
#	84709
#	112619
#	133858
#	154759
#	174347
#
# Disc length: 2709 seconds
#
# Revision: 1
# Processed by: cddbd v1.5.2PL0 Copyright (c) Steve Scherf et al.
# Submitted via: audiograbber 1.83.01
#
DISCID=650a9309
DTITLE=Nylon Jail - My Heart Soars Like a Hawk
DYEAR=2013
DGENRE=Alternative
TTITLE0=Sun in Hell
TTITLE1=Turtle Soup
TTITLE2=Grace
TTITLE3=No Way
TTITLE4=Abscissa
TTITLE5=Fort H.H.G.
TTITLE6=Indian Summer
TTITLE7=Dumb Ventriloquist
TTITLE8=One Word
EXTD=
EXTT0=
EXTT1=
EXTT2=
EXTT3=
EXTT4=
EXTT5=
EXTT6=
EXTT7=
EXTT8=
PLAYORDER=
